# xmcd
#
# Track frame offsets: 
#        150
#        14019
#        26703
#        39879
#        54761
#        67665
#        84534
#        100793
#        119767
#        143668
#        165817
#        186644
#        213493
#        235212
#        252756
#        273805
#        292911
#
# Disc length: 4130 seconds
#
# Revision: 4
# Processed by: cddbd v1.5.2PL0 Copyright (c) Steve Scherf et al.
# Submitted via: ExactAudioCopy v1.0b4
#
DISCID=e0102011
DTITLE=Honeyboy Edwards, Sunnyland Slim, Walter Horton, Kansas City Re
DTITLE=d, Floyd Jones - Old Friends
DYEAR=1993
DGENRE=Blues
TTITLE0=Apron Strings
TTITLE1=Gamblin' Man
TTITLE2=43rd Street Jump
TTITLE3=The War Is Over
TTITLE4=When I Came In
TTITLE5=Banty Rooster
TTITLE6=Mr. Freddy Blues
TTITLE7=Over The Seas Blues
TTITLE8=I'm A Prisoner
TTITLE9=Freedom Train
TTITLE10=Lightnin' Struck The Poor House
TTITLE11=Linda Lu
TTITLE12=Lula Mae
TTITLE13=That's All Right, I'll Be Around
TTITLE14=Heartache
TTITLE15=Sometimes I Worry
TTITLE16=I'm Going Back Home
EXTD=
EXTT0=
EXTT1=
EXTT2=
EXTT3=
EXTT4=
EXTT5=
EXTT6=
EXTT7=
EXTT8=
EXTT9=
EXTT10=
EXTT11=
EXTT12=
EXTT13=
EXTT14=
EXTT15=
EXTT16=
PLAYORDER=
